<svg width="46" height="41" viewBox="0 0 46 41" fill="none" xmlns="http://www.w3.org/2000/svg"><path d="M26.09 5.399l5.838-2.223 1.773 5.597 6.224.787-1.474 5.69 4.935 3.58-4.336 4.266 2.328 5.405-6.027 1.697-.903 5.792-6.11-1.32-3.896 4.618-4.553-3.991-5.839 2.222-1.772-5.596-6.225-.788 1.475-5.69-4.936-3.569L6.929 17.6l-2.34-5.406 6.039-1.696.903-5.792 6.11 1.32 3.884-4.619L26.09 5.4z" fill="#CACFD2" stroke="#41484C" stroke-width="2" stroke-miterlimit="10" stroke-linecap="round" stroke-linejoin="round"/><path d="M21.695 32.364c7.136.606 13.5-4.284 14.215-10.92.715-6.637-4.49-12.508-11.626-13.113-7.136-.606-13.5 4.284-14.215 10.92-.715 6.637 4.49 12.508 11.626 13.113z" fill="#fff"/><path d="M35.91 21.443c.288-2.665-.38-5.207-1.745-7.334m-12.47 18.255c4.053.344 7.857-1.084 10.518-3.599a12.127 12.127 0 0 0 2.869-4.11M24.284 8.33c1.333.113 2.598.41 3.77.86a12.961 12.961 0 0 1 3.635 2.125M15.634 30.355a12.381 12.381 0 0 1-3.82-3.77m7.094-17.662c-.341.108-.677.229-1.005.362a13.164 13.164 0 0 0-4.94 3.475c-1.58 1.793-2.628 4.021-2.894 6.492-.134 1.24-.061 2.452.193 3.61" stroke="#2599AE" stroke-width="2" stroke-linecap="round" stroke-linejoin="round"/><path d="M16.516 21.389l4.382 4.277 8.765-8.555" stroke="#EFC053" stroke-width="2" stroke-linecap="round" stroke-linejoin="round"/></svg>